<svg t="1626417405941" class="icon" viewBox="0 0 1143 1024" version="1.1" xmlns="http://www.w3.org/2000/svg" p-id="2471" width="48" height="48"><path d="M387.907832 290.329177a2337.050694 2337.050694 0 0 1-283.603386 107.19739L550.653905 934.120512a38.109783 38.109783 0 0 0 53.659694 5.060971 37.378787 37.378787 0 0 0 6.096966-6.584963L784.986571 698.201855z m71.097595-34.817802l371.957882 380.859832 80.183544-107.501388a38.109783 38.109783 0 0 0-2.316987-48.415724l-75.183572-83.599524-28.719837-31.70682 233.783669-167.015049a67.074618 67.074618 0 1 0-93.537467-93.843466l-165.979055 232.077679-31.768819-35.366799q-66.219623-73.72058-131.892249-147.746159c7.133959 7.987955 5.670968 7.682956 4.939971 7.804956-4.573974 0-8.902949 0.975994-6.097965-1.036994a1211.361103 1211.361103 0 0 1-155.491115 95.489456zM883.037013 59.959489a143.478183 143.478183 0 1 1 200.18586 200.18686l-164.331065 117.379332q22.86587 25.183857 46.768734 51.891704a114.269349 114.269349 0 0 1 6.889961 145.002175L671.631216 978.023262a114.453348 114.453348 0 0 1-160.064089 23.293867 116.587336 116.587336 0 0 1-19.511888-18.293896L8.875989 402.038541a38.049783 38.049783 0 0 1 18.597895-60.976653q350.128007-102.074419 541.899914-242.564619c25.182857-18.293896 81.952533-19.817887 103.233413 4.145977q46.097738 51.890705 99.879431 112.075362l110.550371-154.759119z" p-id="2472"></path></svg>